<?xml version="1.0" encoding="utf-8"?>
<!-- Generator: Adobe Illustrator 24.3.0, SVG Export Plug-In . SVG Version: 6.00 Build 0)  -->
<svg version="1.1" id="Layer_1" xmlns="http://www.w3.org/2000/svg" xmlns:xlink="http://www.w3.org/1999/xlink" x="0px" y="0px"
	 viewBox="0 0 24 24" style="enable-background:new 0 0 24 24;" xml:space="preserve">
<style type="text/css">
	.st0{fill:#FFFFFF;}
</style>
<path class="st0" d="M19.5,12c0-0.2,0-0.4,0-0.7l1.9-1.4c0.4-0.3,0.5-0.9,0.3-1.3l-1.9-3.2c-0.2-0.4-0.8-0.6-1.2-0.4l-2.1,0.9
	c-0.4-0.3-0.8-0.5-1.2-0.7l-0.3-2.3c-0.1-0.5-0.5-0.9-1-0.9h-3.7c-0.5,0-0.9,0.4-1,0.9L8.8,5.2C8.4,5.4,8,5.6,7.7,5.9L5.5,5
	c-0.5-0.2-1,0-1.2,0.4L2.4,8.6c-0.2,0.4-0.1,1,0.3,1.3l1.9,1.4c0,0.4,0,0.9,0,1.4l-1.9,1.4c-0.4,0.3-0.5,0.9-0.3,1.3l1.9,3.2
	c0.2,0.4,0.8,0.6,1.2,0.4l2.2-0.9c0.4,0.3,0.8,0.5,1.2,0.7l0.3,2.3c0.1,0.5,0.5,0.9,1,0.9h3.7c0.5,0,0.9-0.4,1-0.9l0.3-2.3
	c0.4-0.2,0.8-0.4,1.2-0.7l2.1,0.9c0.5,0.2,1,0,1.2-0.4l1.9-3.2c0.2-0.4,0.1-1-0.3-1.3l-1.9-1.4C19.5,12.5,19.5,12.2,19.5,12
	 M12,15.5c-1.9,0-3.5-1.6-3.5-3.5s1.6-3.5,3.5-3.5s3.5,1.6,3.5,3.5S14,15.5,12,15.5"/>
</svg>
